<mxfile host="Electron" modified="2024-06-09T22:56:15.894Z" agent="Mozilla/5.0 (Windows NT 10.0; Win64; x64) AppleWebKit/537.36 (KHTML, like Gecko) draw.io/22.0.0 Chrome/114.0.5735.289 Electron/25.8.3 Safari/537.36" etag="zB6_xUOpiMr3e1flTTjh" version="22.0.0" type="device">
  <diagram id="aiaVj3JmObzEyL4hF8xT" name="Guiado">
    <mxGraphModel dx="1658" dy="828" grid="1" gridSize="10" guides="1" tooltips="1" connect="1" arrows="1" fold="1" page="1" pageScale="1" pageWidth="827" pageHeight="1169" math="0" shadow="0">
      <root>
        <mxCell id="0" />
        <mxCell id="1" parent="0" />
        <mxCell id="VLbCcSCx_4R70g7GuZDX-11" value="&lt;font face=&quot;Verdana&quot; style=&quot;font-size: 18px;&quot;&gt;&lt;b&gt;Diagrama de Arquitectura de soluciÃ³n&lt;/b&gt;&lt;br&gt;Registrar Alumno en Canvas con SQS y DLQ&lt;/font&gt;" style="text;html=1;strokeColor=none;fillColor=none;align=center;verticalAlign=middle;whiteSpace=wrap;rounded=0;" parent="1" vertex="1">
          <mxGeometry x="140" y="10" width="580" height="50" as="geometry" />
        </mxCell>
        <mxCell id="IGUT0qL6y9MyzmAOrScW-14" style="edgeStyle=orthogonalEdgeStyle;rounded=0;orthogonalLoop=1;jettySize=auto;html=1;" parent="1" source="IGUT0qL6y9MyzmAOrScW-1" target="IGUT0qL6y9MyzmAOrScW-4" edge="1">
          <mxGeometry relative="1" as="geometry">
            <Array as="points">
              <mxPoint x="640" y="146" />
              <mxPoint x="640" y="350" />
            </Array>
          </mxGeometry>
        </mxCell>
        <mxCell id="IGUT0qL6y9MyzmAOrScW-1" value="Amazon SQS" style="sketch=0;outlineConnect=0;fontColor=#232F3E;gradientColor=none;strokeColor=#ffffff;fillColor=#232F3E;dashed=0;verticalLabelPosition=middle;verticalAlign=bottom;align=center;html=1;whiteSpace=wrap;fontSize=10;fontStyle=1;spacing=3;shape=mxgraph.aws4.productIcon;prIcon=mxgraph.aws4.sqs;" parent="1" vertex="1">
          <mxGeometry x="520" y="96.2" width="80" height="100" as="geometry" />
        </mxCell>
        <mxCell id="IGUT0qL6y9MyzmAOrScW-4" value="Amazon SQS" style="sketch=0;outlineConnect=0;fontColor=#232F3E;gradientColor=none;strokeColor=#ffffff;fillColor=#232F3E;dashed=0;verticalLabelPosition=middle;verticalAlign=bottom;align=center;html=1;whiteSpace=wrap;fontSize=10;fontStyle=1;spacing=3;shape=mxgraph.aws4.productIcon;prIcon=mxgraph.aws4.sqs;" parent="1" vertex="1">
          <mxGeometry x="754.5" y="300" width="80" height="100" as="geometry" />
        </mxCell>
        <mxCell id="IGUT0qL6y9MyzmAOrScW-5" value="&lt;b&gt;sqs-registrar-canvas&lt;/b&gt;" style="text;html=1;strokeColor=none;fillColor=none;align=center;verticalAlign=middle;whiteSpace=wrap;rounded=0;" parent="1" vertex="1">
          <mxGeometry x="490" y="196.2" width="140" height="20" as="geometry" />
        </mxCell>
        <mxCell id="IGUT0qL6y9MyzmAOrScW-6" value="&lt;b&gt;&lt;font color=&quot;#0000cc&quot;&gt;sqs-registrar-canvas-dlq&lt;/font&gt;&lt;/b&gt;" style="text;html=1;strokeColor=none;fillColor=none;align=center;verticalAlign=middle;whiteSpace=wrap;rounded=0;" parent="1" vertex="1">
          <mxGeometry x="714.5" y="400" width="160" height="20" as="geometry" />
        </mxCell>
        <mxCell id="IGUT0qL6y9MyzmAOrScW-9" style="edgeStyle=orthogonalEdgeStyle;rounded=0;orthogonalLoop=1;jettySize=auto;html=1;" parent="1" target="IGUT0qL6y9MyzmAOrScW-1" edge="1">
          <mxGeometry relative="1" as="geometry">
            <mxPoint x="413.48" y="258.0999999999999" as="sourcePoint" />
            <Array as="points">
              <mxPoint x="460" y="258" />
              <mxPoint x="460" y="146" />
            </Array>
          </mxGeometry>
        </mxCell>
        <mxCell id="IGUT0qL6y9MyzmAOrScW-10" value="&lt;h3 style=&quot;line-height: var(--line-height-heading-m-6mmwjh, 22px); color: rgb(22, 25, 31); font-weight: var(--font-weight-heading-m-6tlbfp, 400); font-family: &amp;quot;Amazon Ember&amp;quot;, &amp;quot;Helvetica Neue&amp;quot;, Roboto, Arial, sans-serif; -webkit-font-smoothing: var(--font-smoothing-webkit-8fiijr, auto); margin-block: 0px; padding-block-start: var(--space-scaled-none-ch5fay, 0px); padding-block-end: var(--space-scaled-none-ch5fay, 0px); padding-inline-start: var(--space-s-2025hl, 12px); padding-inline-end: var(--space-s-2025hl, 12px); text-align: start; background-color: rgb(250, 250, 250);&quot; class=&quot;awsui_root_18wu0_1iaas_99 awsui_box_18wu0_1iaas_219 awsui_h3-variant_18wu0_1iaas_223 awsui_p-horizontal-s_18wu0_1iaas_647 awsui_p-vertical-n_18wu0_1iaas_542 awsui_color-default_18wu0_1iaas_219 awsui_font-size-default_18wu0_1iaas_235 awsui_font-weight-default_18wu0_1iaas_275&quot;&gt;&lt;font style=&quot;font-size: 12px;&quot;&gt;RegistrarCanvas&lt;/font&gt;&lt;/h3&gt;" style="outlineConnect=0;dashed=0;verticalLabelPosition=bottom;verticalAlign=top;align=center;html=1;shape=mxgraph.aws3.lambda_function;fillColor=#F58534;gradientColor=none;" parent="1" vertex="1">
          <mxGeometry x="760" y="110.2" width="69" height="72" as="geometry" />
        </mxCell>
        <mxCell id="IGUT0qL6y9MyzmAOrScW-12" style="edgeStyle=orthogonalEdgeStyle;rounded=0;orthogonalLoop=1;jettySize=auto;html=1;entryX=0;entryY=0.5;entryDx=0;entryDy=0;entryPerimeter=0;" parent="1" source="IGUT0qL6y9MyzmAOrScW-1" target="IGUT0qL6y9MyzmAOrScW-10" edge="1">
          <mxGeometry relative="1" as="geometry" />
        </mxCell>
        <mxCell id="IGUT0qL6y9MyzmAOrScW-13" value="&lt;font style=&quot;font-size: 12px;&quot;&gt;Desencadenar&lt;br&gt;Lambda (2 Reintentos)&lt;/font&gt;" style="text;html=1;strokeColor=none;fillColor=none;align=center;verticalAlign=middle;whiteSpace=wrap;rounded=0;" parent="1" vertex="1">
          <mxGeometry x="610" y="110.19999999999999" width="140" height="33.8" as="geometry" />
        </mxCell>
        <mxCell id="IGUT0qL6y9MyzmAOrScW-15" value="" style="shape=image;verticalLabelPosition=bottom;labelBackgroundColor=default;verticalAlign=top;aspect=fixed;imageAspect=0;image=data:image/png,iVBORw0KGgoAAAANSUhEUgAAAncAAAIRCAYAAAAoZ5slAAAgAElEQVR4nOzdvZKbyN4G8Edv7aXAcXnr+AJgrkBaBxNN6M2acKTA2TryZg5gQpEdhxNN4IUrGHQB3lqXt7mXfgM+BAgQIMSXnl+VqmyNWt10I/RX0x8rpZQCERERES3C/41dACIiIiLqD4M7IiIiogVhcEdERES0IGeDu9C3cHe3wmoVPSx/iGIRERERURe/1P3Rt1bYuEMVhYiIiIguVd1zFz7hzziwMx0PUikopbBfD1QyIiIiImqtsucu/OsZAQAID6+PjOiIiIiI5uDsmDvzV32IchARERFRDzhbloiIiGhBGNwRERERLQiDOyIiIqIFqQzu5D/BkOUgIiIioh6UBnehnyyDYuLhN23YEhERERFRZ5mlUHxYqw3SNYtNE84fr3hkbEdEREQ0G9Vj7gLgH4QDFoWIiIiILrVSSqnik6FvQd+4AEw4kr13RERERHNR2nOnrffwBAAEeP6LvXdEREREc1F5W1b/1RyyHERERETUA65zR0RERLQgDO6IiIiIFoTBHREREdGCMLgjIiIiWpCzwV3w/BdXuyMiIiKaicrgTvvtASYABFv8/uQzwCMiIiKagdJFjBO+tcLGzT8nPIX9+trFIiIiIqIuam/LrvcS0hMwueQdERER0SzU9twRERER0bxwtiwRERHRgjC4IyIiIloQBndEREREC8LgjoiIiGhBGNwRERERLQiDOyIiIqIFYXBHREREtCAjB3c+rNUKq9UKq5UFv/I5mjzfwt1qhdXqDtYljRY+xe9T1vZzOV/mUs6hsV6IiIYwnZ4781foAAAdvzbcESP0n2Dd3eHuiTvfZg1fLyGe/nQRAAACuH8+XX8v4g7nyygaltO3ogCnrs3Cp7soCEqj52xg1OSRD57S92uRplAihL6Fu7v8+9zdWXjyw/pzYC7tR0Q0QyMHd5dd2OXLFm4Q9FechRi+XjQ8/iEQNaUJ8ccjtKvkM5dAYC7lvEDow7rToW9cBIVzLQhcbDc6vpxEhTdQL0REEzCdnruUhv/8N/5n+uueJm+9x6tSUOoV+/WQGc/lfLlGOdfYKwWVfUgnDrIFvOLf1B6lTSO8wuvOpfFh6Ru4AQCYEJ6EzKSR0oMjmkZxc2k/IqL5+GXc7OMLewDgv/+5Um8PLcdczpe5lLMb39rABQCYcOQrHgsHqGlrPJZG+MuuFyKiqZhgzx2gJ/duil8A6WD76LGJvmEQbPXS8UJVA/ujcULZ197hzvIrxggl45risUehDys7xujuDpZfM07Kf8KTdZcrd5TfE8qTdcivp3ppzbdK37/pWL9kbGAu7e/PaHtDufJ8qShzLxM/OmhVzqkKn/BnfH6Zzv9OArsuFlEvRERTouZEOsoEFBo+hHf6Fp4wa9IIdZrEUyL+m+OJyvzL8lKeOFNGUzmyh/x6qJdOKo7PPD2oAqk8ca6cZW1xKakcM5OH6ahzJR1KUh91dSed+Nyta8D0XDhff43eryrNVdqHiIj6MMmeu0raYzyuK3p4InradGTpeKHinaHw6Q4bNwBgwvEyaaSHaIiQi81d1UxPF9uNiyCbVnpw4k6HqhmipnDgFMYkKekhKnqA7emo8/b5XVgvna33ufdN8j0nfPo97l2Mxmsd30NCesnEDJoi+U/cr8rxcUREkzWv4O4iPr5s48BOvuJxnbkBpK2xf40DruAZf1XeVSyk1dZ4/COOaIJ/IIsvX+/xun/E41rL327S1tgnkZD7UrPURMv85iB8wu+Zdthn2wEaNP3XK2Y+1KzemXE31Uuh5O5dh/j37/ifvIVKRDRZtxPc+S/RIHDxR8U4oTXuo+gO/1RETcI7HTwO/dc4WPgb/7ZZ3C1NV63X/CYi/CseU2c+4LcxooPRZvUSEREN42aCuzDpcqjppUgmIvxdGjWZ+LXLfajQL5lQscJK356ZONAxv4lLb+ux52c66pZCYQRMRDQ7Iy+FsnC+hVUSMVKOucTIlYiIaAJupucuVbtga/R47WN9B/iwksDOFPBk1WKzRHORWXC4dqwoERGN6WaCOy35Vvr73+vvewocx/jBhPO/Pda8BwnguKZZUDGwMR2Td6Oq6gU43tIes9dzfZ9MiXbxwuiOiGiSZh3cpYHC81/nA7ZkIkKwLdnzcmgh/C/XC2Ja1cvA0iC7rOfHt6BvrxzajbiIcZ00aKrqEUsXDzbxMMpMlNj6Hml4t7EG770Ln5JFr6fVfkREUzLr4C4NFIItfn+q2mEiefEjklVE3M0drOLrwxD+k4U7q2qdu5bSWa0Bnv865hXtyqDH6+1dR6t6GVoaHLjYpLuChPCf7qLxiaZ5xdvVIZ7+dOOgOqhcm3AU2Xq5s/K7l4Q+rN+3484yTmWW8YGLzeoOT4UdU8J4ElH/wVeynBEABKMEl0REs3Ct1ZGHUdhx4OxODPWvR+muBcmOEWW7SajMjgDFv9fnZQqR7kSRL2bX/C6ply4a1GXFjhXHXQ7KdqXwKurlCmWe0A4VSimlanYkicrboE667FDRYacQea6sfe6Ecsy1cM7VfQaIiG7XrHvuAA2PrxKeI2A26u6JXi89AbOYwDQhHA/yf30tbBuXTeR7okxTwPEkXvf3veRSm3fjehmW9vgat8HxOVN4kGqP6y68MfFFjNd7vEoPTuGcSc/N12vXT3Paeo9XGZ/fJx+l6BzvfxUVDY/JYuNERFRppZRSYxeCiKiZEE93OqK7swLe1X8QEBHNz8x77ojoZoQhfOt3JMPuTOcjAzsiohJcxJiIpi18wl1hRxfTkT2tR0lEtDzsubtZPqyqzeLPPLgEBY3DhCkceLKvhcaJiJaJPXdENG3aI17V49ilICKaDU6oICIiIloQ3pYlIiIiWhAGd0REREQLwuCOiIiIaEEY3BEREREtCIM7IiIiogVhcEdERES0IAzuiIiIiBZk5OAuu0uCBb/yub6ys0p3XLh7CvvM5Tb5Fu5WK6xWd5ftYBE+xe9T1vYDny+dzaWcNA08X4ioX9PpuTN/hQ4A0PGrOXJZqKUQT3+68d6fAdw/n3D1cHku50vrcobwrbs4wI0fd3ew/PM1GvoW7u4K6Z78M23RJb8wzusu/yPpzsJTg3LGhYWVlPWu2fky3PHF6Z6sQrr64wuf8vXRaeu+uZzXRDRpIwd3A1/A1nsopdKHJwbMe9E0PP4hEDWlCfHHI66z8+dcvvA6ljN8wt1Kx8YN4kA5FgRwNzruaiID31pB37gIgkK67QZ6VfDUMb/w6fc4r1wqBIGL7Uav7wkPfTxZd1jpG7hB9cuKhjy+KPDUsdm6hXTx8fW+ufJczmsimovp9NylNPznv/E/01+xNHnrPV6VglKv2K+HzHgu58u5cvqw9C0CAKZwIGXyI0SmP0ICd1Pa8xM+3WHjAoAJ4cn0x4v04oA72EI/Sdg9P+C/MIWXSaOgpIQnoggl2P6O0/gu7gnTN9i6AUzhwWn442rY4wvx9HsceJoOvGw6xzxTLzHh5X5EZh/NPxtzOa+JaJLUyDwBBUBBeKfPmY6SA+RtOtfMhVqRjjIBBQjllfx5zPOljU7l9IQSpeeiVI55+n5xIiUQ/e3kT0op6ZhROpjq5K075VfnmO4kWdquphKejLNv0m4DH58n4vc7c/6VlDktS6s6K7zvxM9rIpqHCfbcAXpyj+K//6m8vRf6T3gqjqVZ3eHOekLTYT/NJAOb70p6I5CZAJD9e5ImGgjtW3dp+aLXhMfn7qzC++bTRreI7lqNh/KfCmOTVne4s3yEfQ+Eu3CCSug/5Y9ttcLd789ocbcOQLPzJVvmXiZ+dHC2nOs99o9lf8n04vz9b/4WpP+CqFPLwceSXiHt8Q9EHVUBnv8qtEuX/LrSfsODEHDkK/brFjftBz4+/8VFlN1HlHWyrT86cW/hM4rZ9a3VeU1ElDV2dNlJ+uu66lHyK770bZr03CU9BxXvmemROP49SSOUk/YsHH+FeyXPyZP8hHI8Eb/36aO8c8BTwry8XhqraIfzPaHy2CtR+SjvOblMpsdmZj0iVb04585hmT3XWvQodes1OvNZ6ZDHsMdX0/N4TFnZk3hJzx0RUZ8m2XPXhCkcOJ6EzI5pkV76K377ZQqLB7jYbgOYjoSSTjo+aJM8lw7++QeyLO3GRQATTjLOSHqIh/2UzEgN8XSXDFLPpFEKUjqIhkMF2Oo9LqvQcYJK+PR76RgqpeRxHBVlhPj37/ifuV6c4/P//U+hbyf08XS3gr7N9IM27oWryq8uiQ/rbgMXgOn8D6UdZq2Nd3x//1v1Tpz8QETTN8/gbr3H6/4Rj2stf2HW1tgnEYb7MpG1oQT+eNQA7T9I7gTBdPC/Rw3Qfz0TyJhw5Csek9tY2hqPf1QEhP4XbIOSNAA07RH7/8XBJVy8jFkx4RN+3wZIypm/RadB03+9YuZDzertWfgXnuMYRtyfH5Ef+vHEhWRSQNOZC63yy67Dtopnv0Y/Kl77ieyqi3e14zverg2e/+p+O9rdlC4Rw9U0iWgo8wzu6pwNmIZVNnanaVAhvNfTHpD0+P5GtnMhGSsE8Ud5r4n2iD/SuHe86C78Kx5TZz7gtzEiq9Fm9XZ1nPV5Ou5M4p/cAMVoLKe+iZbwMB0P8vUR6//0ld85Abab32H1tij48Md3HFO3xe9Wfg29MPTxZP2ObctBockSMfodFyMmomHMN7iL18u6Kw7oTy7cE3FyOwkmfm20rkHT1wHZ20x1PTvpAO2+Bsl3IJNvaw4SbyC+1Q4AEPBeiz8KMrcI/43XZnOTXlGF18d1yzo+l1/WGntVWArFMQEEcLdn1rprbITj0x7xv8ySJ3rm2qLHy7hU0R5fT5c/ySwRg8DFpuGCzUREl5hncOdbWMUX2ikFclOnpVMEx2c2j1xvVAjf0jO32velszcT7va4NptU+R7fMB1g1l9+JzQN68fXdBxpsP3Say/VkMenPb5Cesk41YQJ0xRwvGTca8MfX5qG9f4VMhksO8AsWyKiGQZ3PqxNfAvSFJlFRpNfys6kbstOSbMvQZoC39Izk05Kbs8DyC3pARPCkVAlvVFNekub5dfA+j6e1JQfNtDNeMenrR+xf81eW17x+rrH4xrxreL/4qRTvu79fnvgdYmIBjO/4C5Z9womnP/t0WbJrOU6fgnWjaebwi3R5NZw8M/p/GAgMybvhvnWKheI1I0NTG+1mw/4WBqxnL9l3ya/s8J/EWXXLvipMrnjS64/4r5dz6b85+bPayIazvyCu1oh/C/XCg4CnMYjmcHZI1vfn5klHD7hz2TORYMZl9eiHaPQ03L6Vn5pi2sYcRHjJnwr2WoLjQKRtEco2KJ09Z90FrVAWbO3ze+c44SZfrbMmtTxhU+427gATDitZpqEeEo+fFeaSBQ+HRdKn+J5TUQDG3RVvT6kiwZDmY6XLkAqPaewgO/5RXCbbj92XHBXqHjnJCU9p7DAcNkixtmFTksWeC3daqvLosn5PGEK5cjM0qzZsl5xgdV2i0JHZYleKY8LO5tm7fZjl5n2IsaeOC7I26aZjufncWsvpZSSmUWwy9qka35lpJSt36/pQsnjHp9UUnrK6fheUmYXFu95EfFU5jN1tc8OEc3J/IK74hd0cXcEIdIdHrwW6XLvUbwC1+yIYTpOSTA2RnCncoFv6aPXYKZ7fcriDh25LyWvov2uUOYpBXfn2i77ON249cxnonRT1o75FQOJ4iMfgDUtY+3nb9Djq8ur6tiaHN+1AruyvK+ZFxHNwQxvy2p4fI2WF8gOUI5mskm87u/7z3K9P509F0/meH38bTor1muPeJWndQMz2glC1i5tMZxoNqKAmSmkKTxI1XKGZvuc57mI8VnxZ8IRpe3+OsCCfqZpQjgepGq5d2wjYx6fmV5buhxbNu311nbW8Pia7M5DRASslFJq7EIQEdElQjzd6en4Q+/qP5SIaMpm2HNHRESpMISf2TmjbFccIrotv4xdACIi6iB8wl1htr7pXH9vXyKaPvbc3azCxu8tHlxqgWhKTJjCiccAM7AjIvbcERHNk/aIV/U4dimIaII4oYKIiIhoQXhbloiIiGhBGNwRERERLQiDOyIiIqIFYXBHREREtCAM7oiIiIgWhMEdERER0YIwuCMiIiJakJGDu+wuCRb8yuf6ys4q3XHh7insMxcCoq2RrtGGszDwed2j0Ldwd8fdSIiI5mw6PXfmr9ABADp+NUcuC01a6D/BurubR1A+o/Pat1bQNy6C4PxriYhoukYO7gb+wlvvoZRKH54YMG/qjXzZwp10BDL9QO5E+IQ/3eifpuNBxp+R/XrcYhERUXvT6blLafjPf+N/pr0eRHM37fM6/OsZAQAID6+Pa3D7eSKi+Ro5uMt84f33P/xCoYWY73lt/jq1sJOIiNqaYM8doCf3tGq+GEP/CU/WXTxoP3nc4c56gt/rUKxkIPwdSod4pRMHsn9P0kQD533rLi1f9Jrw+NydVXjffFqEPqy7u+Mx3t3Bqj3AEP5TflB8VC8+wisNUUvGwOUmqfwe9wTVpGncfmkdR49NfPsw2OqlE2TKJwF0r5fS47uz4Les0Cbndcq30vOKkxqIiKgVNUeeUABqHqZyZJO3iV5v1r7YU6LuPaWjzJO/J2mEchwzXzbTUV7Jc/IkP6EcT8TvffoQXkVZzcvrpTmZ1mH1Q6iTorZtv7SOmz1O66Z7vdQfX8mx9UIqJ1ve3PlxHTI+J+s/C0RENAeT7LlrwhQOHE+mA7+VUlDSQzRHIsD2yxS6O1xstwFMR0JJByYABFtskueSGR3BP5BlaTcuAphwPJkenxN3/rh/PiHfbxTi6W4DNwCQTaMUpHQgosyx1ftbhiN8+j3uRTMhMvkpJSE9gbo5Ba3aT3vEa8lEGNORuQkyqnQSwAX14lvp8Tknx5ekJSIimphhY8kBpL1C53tVrt9zly1H5rmkJyZNmy1rNm1JnlXHlz5/rpxVvX4tlR532d9b9m41aL9m7VZ8v/b1kvRmoZcKaynttTX7aa+z2bWoUyIimrTZ9txV0n+t7TEamul8RHE1CfHHY6NB9sJ7xWPxhenx/Y1/M113/oubvPlpGgDQHvFH3OPlvlzed5fOrjQf8FufMwZ6br9L6kVLZkW4f+Kp34Gc5633cW/l69WXIwn9ZBkUEw+9NiYREY1hvsFd6JcMyF9hpW9rB/IP7b//KX5Zmmg2IbHp6wAgxL9/R/8S99WRQDqg/+9/cWmoIv+Ja7nrbNBB2u/Cell/jG+DB9hu9Ggyy9P1JqYM67hjhr7ZIjBNOGU/JoiIaHbmGdz5Flb6Bls3mFQgN3VpT1SPOi2dMbH2q64XDY+vEp4w4/GSAdztBrpeNst55gLgn4tDfiIimoIZBnc+rGQtDFPAk4UB9cnEBToRJt1Yo5pe+9XXi4b1/hWvSkF6DpxkFkXgYqvPee/VNfbJxBJPAAjgbn5fVsBKRHSj5hfc+S+IQgMTzv/2WPM2ErKL5taNp7v4VmpGcisz+Od0ni+QGZNXNGj79Vsv2voRj/tXKCVrZi3Pj7bexzOQAzz/NfejISKi+QV3tUL4X+oXz+0uwGkc48OayBi/9X06K6B8qZPM3qF148+aOk42KMnPt6Bvu9RKs/ZLA8vnv84GVtepFw2Pf1x5Y+KBFzHWZ7cZLhERVZlfcJfOpgzw/JeffrlHuwjo2Lh9h1prpPHBxkp3Twj9J9ytNnEv1ASs7+M14lxs7iw8ZUb9h/4T7pIgVHj9zL7M5mcl7RDCf7rDauMCpll+e7WH9ksDy2CL35/8+gDvgnrxrTtYT0+nO1GEPqwkIrzK9mIhnv504yA3WETvIBERDWjEZVg6KqzeX3iYQqQ7PHgt0uXeo7jWV82OCqbjlKyDd1yr7rhGWcl6ebXr3LVZV6/4t4pHzzsdyOJOG7m1/bxO7VDdfs3f42RduI71cnb3DZM7VBAR0fTMr+euOIMxZpoCjifxur/vP8v1/nRHgngywOvjb5jMHS3tEa/ytG5gRjtIyNdm6+s1z+412okik5kpPEi1P1nbL5Oqh/aL38PJ511T0E71st4neRQyMU0Ix4N8rTvOS0S3faNczcbrIhIREQHASimlxi4EEY0rfLqDHm+L98rF7oiIZm2GPXdEdC1NJqkQEdG0MbgjImi/PcQLNTeYpEJERJPG4O5mHbefavuY78K9VCmzx26w3UBnWxMRzRaDOyICEE0gKU6QISKi+eGECiIiIqIFYc8dERER0YIwuCMiIiJaEAZ3RERERAvC4I6IiIhoQRjcERERES0IgzsiIiKiBWFwR0RERLQgDO4WJbvrhAW/8rk5So7DhDP5vbHm0g4Dl9O3Snc8MaffoEehA7NJ3fhW/DqTu3z0gfWZMZfrC42Jwd1SGW+hAwB0vDVGLsstm0s7dCpniNC3YJpmPlgzLTh+eMP704ZwPrs4AAAOcD87k6qL0DFLg+z8Y0oBwrTrc1Rzub7Q4BjcLQo/4NMwl3a4oJyhD8vUoW9cHA6H3J8OBxe7jY4vxehgvYdSKn14omPek6dh+0kgqloD4tMW2sglmjfWZ95cri80JgZ3i6fhzbv4n+mvPBreXNqhSTl9WPoG7gEADAhPQmaCNik92OLGv33WewRKQakA+/XYhakgvFywnX/sMaliz6E+RzWX6wsN5ZexC0B9ij/gBwDv3tz4r9sxzaUdupXTtzZwAQAGbBlgW0ioaWts+Q1MdCVzub7QmNhzdwP0pA+/9EKQDMSNx9iEPqzsGCrThOXXjXAJ4TsWTDM7XseEafkIT5Ll8/ItM319NKY+PD5nWvUTJ0IfjtWsnMkYIzN+w9B3YJn5MWJ1hxiNKys5vprilalvh4IRB5DXljN08DmK7GDYX08Cu2sJfQeOZcZ1km0Hp6LtzkzASSdGVE/Qic6TwnjCD884lL/8ogkj7Y9vPKX1YlrwTz/wuOj60qk+h7yeRa93zNMyNh3D2Ge7t7q+0PIpunGeEoAChLI9oQxAoeQhvIq0Rvnro4ehbFmRl23kX2vYyit5Tp6kNZTt2a3KKeP3NWyZ/vv0IVTZIXqi6vXVaS4nlW1U1cO4jvV3+bF7Amm7nHlhTRuUnWdK5c6XsreXyTlU9neZlq1V21eU8zrH113ahuUf6jNFbVknl1xfOtXnkNczpU4+q1WPss/wwO1Ot4XB3c1LLoaZC4oXX1Gkd7xwnVycshe1TBqllJR25iKZveDn8zJsmfmSzTyXXvSq0wKGEmme2S/j0y+Yk4DOEOqY9Jh/8UvjmC5/fEpmvgSuEnhNN7hL67mHMrUJ7gxhK9uT+Txl5pw4+bbuHtxl211k211JJdOA4Xxwe93j665zcJd+LgufByWV9GwljLrgrv3n9jT7NsHdENezM2p/QKjB251uC4O7m5e9GJZchEoDLZW/0Nd+eWZ/JWfzSt4v81xywU3TVgV3dT01p7/Kc8FdSVBS/mV3Jjg4+/cLpUGEUdHLMIbMF2APhWoc/NS/ScWXbsfg7twXcum5WVW0ax5fd9W915lHSft2Cwq7f25PXtk6uLv29azO8bPS6aNyhXan28Ixd5QS3ungeOhv4yUIvuNnZgyI/xIPvBKfysddaVt8ipe6cF9OR5sY9seT2XhNlzgoLSfWuI/z+/6zYrCKYUMGNXl8/3kcR+e/RJMGqo4vze+AH7JBodvi7MBm0vOzH+G3eEyd8YD3Uxi41PPxXUJLpmO6n+F0GAjY+XPb0ZDXs6LQ+YDdAYDwun1+J9TuNE8M7ihm4G3j+fMhfn6P/iXuq69c6QDfbNAUe/emeAVtmv/51x2qoq2KgcbaNoiWf8gEfmFygO6mcpD0Jv4+6PtLiUrEE2jMYjvou+oJDh3IH/G7DT0ofaDjy6lbCqUsIll/hG0AwAG7jR5NTnCqJhoUXfC57WTY61mOb0HfHaIfk+ciuzHanW4Cgzu6mvSX/kB0ruy5TL6Flb7Bzj0M9oVnNI8MLjfC8XWjYRtIeMKIepUOB7i7DXS9wez2GnP53Da7nvmwNi4AA/bXM3ciZtPuNEcM7uhq0t6vgSS9Lr1+Mdcu9Bo9gqHWAxldZqFU92Wg7amSL0sAhoAnC/Uv7Znfvprb8WlY7wMESkF69nGx6oOLnb7qtGzPVT63V3D+ehbCMaM1IM8vEzS3dqe5YXBHHRy/5OvGnwx7i+t4a+X0lm976a/0c7dgbsw6GSAFFw2GHl0uGfsIA/bXPdZXPpGSXqSqW4TpmLy+DHx8fdLWW2z3AZSS8e1adNj3td/PbTf9XM+y4+zO/uCbcbvTPDC4o07SL/mqHpzMYrd141h643+JLqwQ6CW7ZEDzYXe6R+oQRlzEuNb6Hml4txl7c/kQ/pdzwVbZhBcfVsWYpuOkgZLzOhlLNZgmxzcF0d6vnaSf2zZj5Pp38fUsPTcEvItnQF2/3ZOF3Sd3faHeMLijbtIveRcb04KTGVUd+g7M5Muz62yxGj++hbnegdC3YMa3OMpm4XaSnR23iQeOZ/8exivZW217KpoI4Xx244v7oUNvyDWtsfeOvXeblXkyczKMB4n38qWRzho84PnbsQ2iXRJ0bNyqr8DjLEx3c9yBJPQdmKtk+7SyZJnzOt2FJITvmFhtXMAw+r1d1vn4hudbJizHOd2JIvRhJZFPTS99/ed2uN1OSl10PcuMs5MN9+Qdtd19fEl/pBwm8CONrmK4VVdomi5YyV9W7xSB0jXlyta0Ksn/7Dp35Q9DeKUL63Zfkb/B6vM3tohxQtas/o+TNlaq8Ur+J+uY1aczhEh3JGi6Y0SUh1153tfvYuJV5DfC8XXUaJ27kvzO7trRaBHj8jX1Ts/vrvU55PWsYb10+Dxco92r8+ZOGEvEnjvqTtsikJnZcwnDgPBk/Zpyra3xUXqwhQGj0HViGAK2JxHs1z2P7YtmB0pPwDjNFML2IM/NiOua7ycR16nReP2/IWnr/bHtK9qjnx7bwp3v+p4AACAASURBVAzNQh7B/r466XoP6dkQuYTR4PVg+x5VkzS1bRC3eTaZB6ka9sq0csHxDWy9l/Dsms9C0K5+kmNUvX9uO+p0PfPxUtkNXJvZiO2uYRt46HgjnWZipZRSYxeCiIiWyIe12sCFAVuWLWJM4wjhmHo6Ttm7yg8XGhN77oiIiG5FGMK34pm96HGcMk3KL2MXgIiIiK4szEwMiRm2vKF1Om8Le+6IiIhuhgFD2PHYUwZ2S8WeOyIioqXTtgjUduxS0EA4oYKIiIhoQXhbloiIiGhBGNwRERERLQiDOyIiIqIFYXBHREREtCAM7oiIiIgWhMEdERER0YIwuCMiIiJaEAZ3i+LDWq2wWq2wWlnwK5+7NXOpl6HLOZd6ISKiNhjcLZXxFjoAQMdbY+SyTMlc6qVhOX0rCcRMOGHJC0IHZhKsmQ7KXtImPyIimj4Gd4vCL+Zyc6mXS8p5wPO309At/Pac2yi8v/yIiGiqGNwtnoY37+J/pr0zNJ96qStniJ/fAcCAYQCH52+FnrkQ356rQ7v2+RER0RwwuFuUzBfzuzfQRi3LlMylXrqW8x0eHgzg8Ixc5134Dc8HQHgeBAAcfkD2kh8REU0Zg7sboCf33s58gYe+A8s04zFc0cM0Lfhh5UitOJ0F01xl0pkwLb90fFfoHN/fKh2tH8Ix6wb0h/Cdivzqi3miab0AAHwrHrtmVpT7epqU8837BxiFW7P+lx0OELhf958fERFNmCJSSnkCCqh6COVVpjNappPKNqr/Lu3k/Qxly5PclDDqylmWpg/ZMkPBsNVVsmktKZdQXvLvtGyeEoCC8I7/rmlHIiJaDvbcEeBb2LgAYMD2JJRS8UNCejZExaD70DGxcQ+n6aQXp3GxOZmhqWH71Ub0li422W6w0MGHXTRGTHgBtrluoxCOuYF7OC2nlEkZD9jpt7R8h8SPdEidhvfZW7P+C1wAom23HRERzd+YkSVNQ9pbJtr06yS9QVW9ZWf+7om0JyzKNtM7VlaO9PUV7ydtZeTer2eeiN/fuM77dxLXcdJbF9eBYcuoJ7bYi3e1nk0iIpoS9twRtGRUvfsZjt9w4FrcMwTxqdDDlljjPhrFjx+y7M97eCLOdmPBsXTsDgAMG3J/2tvkv7jRP6ry07b4lLzfyxX67tZ7BEpBqQAlxZsG7T2izrsP+OwCxsP7eMwclzwhIrolDO4IWH+EndzW3OhYmSYsp36CQhitwQG4m9wEjOxjE8dj33+Wv9F6H8/ihItdclv467ZkEH+y5Ef9bcZ0IsD3n9WL9S5J+BPfc08kt2YPOMDAw3tOhyAiukUM7giAhm0g4QkjGgt3OMDdbaDrK6xMq3zng16s8dHOdClV9gI2k/ZA3jDt/UPUhsYDGNsREd0mBncU07DeBwiUgvRs2MksioOLnV61bAkA4WUmYJQ/gqqILTOBAgDgbi5aZiTtTbxl2ja6fRyU9YBW3CInIqJFYXBHJ7T1Ftt9AKUkko4193N+1mvaS9b5FmgI58MO0TA7mRt/dxrfHRfbrRtPJ5Opo7eyPpv8UbO1GBER3SoGd1RDwzaZpVCkv41v4e7wpUNvW+h8iCZQQODTVsuNv9uUdN+t79PZEuVLnYQOPidzLq6x/MeIixifNWIwe1yUeoL1QkR0oxjcEXzLhOU4pztRhD6sJGIqBhDZ2ambeAJGLm28k4RVXOcOgG9BT9ez2yMKxdbYH7vvYBYH+q3vj8GfacHJlDX0HZh61AsI4V1hNmsI57Mb95IdTnoxp+/Y81k1uaUbH1/S2+qHil5XIiIaGoM7AnCAu9tho+v5Ga96vGiwIeCVREzrvUxn2bq7DfRcWh2bnYvDyTA4H1YyjbYYiGWWRznsPhQmcqyxl/HixwcXu0xZ9U0c2FUso0LXUlxi5Tt6jR2JiKgTBneE9V7CswUMo7AYmmFA2B5kkPSuFUWzbKVXkza3tEm8ywQAoCpgTG7PHrD7UOgh07YIZGZWbzYvT0KWTiLoQ3R7OsrTgPh0rXzaGX8CiYZtkLQXERFNxUoppcYuBBHNVQjH1NPxk56q+iFARERDYc8dEXUThvCtZGIMYNgfGdgREU3AL2MXgIhmJsxMYIkZtqxez5CIiAbFnjsi6siAIWx4smahaiIiGhzH3BEREREtCHvuiIiIiBaEwR0RERHRgjC4IyIiIloQBndEREREC8LgjoiIiGhBGNwRERERLQiDOyIiIqIFYXBHREREtCAM7hbFh7VaYbVaYbWy4Fc+d04I37Fgmkm6tumvITkOE044WiEWpq/z5drmUk6aN55ntBwM7pbKeAsdAKDjrdEmYQjH1LHZuTgczr+aFqLz+TKw1uUM4VsmzOyPFNOE5Z//hRD6hR84pgnL8XEuZdd0Wb6VTe+0SttK6MMy2+TTvT67F3GE+pzL54GoAoO7Rbn8QhQ6H7A7AIAB25NQSmUee6z7KCZNxFy+uDqWM3RgrnRs3ANyv1MOB7gbHaZV3Q/jWyvom8IPnMMB7m4DvSY46Jqu8CbYuE1eeIHQh2OZWOkbuE1/xF1Qn10NW59z+TwQncfgbvE0vHkX/zP9NVolxLfn6Cpq2F+xXXMz+NvT5nwZ07ly+rD0HQ4ADGFDyuQHioQnolcc3A3K4pHQMeNgwIDI/MCRnoABAIcd9JKEXdOdlDuORAzjGpFGPORC32DnHmAID7Zokq57fXYu6STqcy6fB6I8BneLkrkQvXuD9qGZxI+41+7hPQO75bv0fBlKl3KusfcEhC0R7LfQ0kQa1nsJO/6ed1+KwYGPL1HXNYQXYJ/5gaOt9/iaJvxcGPvZNV0hd2sDN3oTfH1odKDthN/weefiEAdMwX6NN40Sdq3Prsaoz7l8HojOY3B3A/TkXsOVLlgnY2JWJkyryZiYME5r5iZumKaFs0N4kttKmXE4Tk2i0HfgFMcKrUyYlnM+r1aSAdjx4OvQh2WajccnXVbOC+ozo9X54ltxWc1ee22aOFvO9R77bdlfMl/i33/mz1P/JQoGDBsfS8YgaNtPiDqqDnj+Fl6eLit08DmKRODtrzQAQnuPByFgy3zA1EiX+uxqQvV57esn0VUoopSnBKAAQ9myYQphKAAVD6G8uryMqnRQMGwli69PyubZyqhIJ8oy9ERNGdsdb4MaicsplO2JAcvZtj77IJVtXDuP6/BEeZmT542KipZ25nzPNGLXdJlXpHWZ/DlNc+V6raqLod+j7P3mWJ9EU8Ceu5uWnea/wmoV38LAATu9uAzKCmbh/kc0JuaAk8kX0oMwAMDFpnTQcwjHTAZyR7eHpDqO4ZGeDfHuJFHsgN1ml95WSvI73qUpH2RtCBt2Lp+4nMl7fum728nFbhPd/rKvXs5L6vMWhfj5Pf5nrjfm+Py7N4U+mtCHY66g7zIj+9Neqq7pMi9LJjIJD9fqtLueqvq8/P1usz6JejBWVElTkPQyNXvkf0Wf6+Wr/vvxV3ebHrNsWUvSpb1edb2FZW/bMd2EytmtPnuS9k4a5b2RUySPPb/5Mp/29iillMz2wBq28mxR6AHqmq5YnnzbzqbnrrI+u5p3fRJNAXvubtoa+9xSJ0kPkQFbqsIyKApBdrxNMiZGfELpMByscS8A4IAfMvt8YUZuh5/5wgtO0+lvoxl0+I6fbQb9pOn6N0w5L6/Pi6z3CJSCUsFMekiOsz5Px3MlE4oS0Zpu+saNZonaHmSwxfpkBkLXdNFrnQ9ReYQ3x6WG6uqzq1uuT6J+MLijTsLkvom7Obl9mzyStaW+56KYS2fkGnjbZT2CeAKGWSxn8sXUu6HKyRnOzcW3rwEAAl6wLdxCzKxz9tOHZerHYQdSIdiuK245dk13+e3D3OK8J49r76hwrj67lnO8+iRail/GLgDR1fkWVldfFbYHcynnLIXwLf24QLes79Vxd5voH4YNWQha0h82l6YLHXzYxUFLP11eA2pXn13dTn0S9Ys9d3QZ4Z3cvq29nTu44yKmMAS84u1maV/ttmw7cynnPPmWnlkQt+R2OYDckh4wIGwJVdIbJZN7hunkgW7pwm/PcW9s+QSmdNLAYQc9eb6w3sx6X/fZu95tyWb12bWc49Un0VIwuKNOtOTq23pdq+SWS836VH1KxgbCgP11j8luutG5nAPX5wz51ioXiNTdrkvXNDMe8LE0YjnO5BT364vTzVGb+uzqluqT6BoY3FE3yQD/ww7tVhE5/io/7L5ceUzQOSH8L89XGnPXp7pyjlyfIy5i3IRvmenYzyaBiPb+of689r/EtyIFsjFFl3TaNqjt8ZbJujmGfVzaZuSBZG3rs6u51mfoJAuIT/PzQLeDwR11o23xKd5T0t2YsJzCjhRhvIeldbqe2/pjcovRxca0CjtLhAh9B1ZJuk7SWaYHPH87ljH0ncxA7Qm4oJyD1mdOCOezm94Kq1q7byxRIJJsYaWaBSLF8zpTl6FvwUz2KbU/5m8ldk03I53qs6tZ1udxyzTgAHdz7QktRDX6X12F5qvtDhWFHQra7IxQs3tDebozZUvXtir+vb6MhhDpjhL9rnM3cDlb12cfJrxDhazexeTkcbI427m2qDpTuqarOoRrrMvW4DNbtq7lRfV5nbJOoz7ryjvCupNEMfbc0QU0bAMJ6QkYRmG4v2FA2B7k14rlEdZ7BFLCEwbySQ0YwoZXla5jGT1h5CYkGIaA7UkE+/tecrncheUcrD4LZf4k4vIaEJ+ukccY4rawRX4SixHt/hFUdll1TUfl5lafGrZBslYo0bhWSik1diGIiIjmL4Rj6ul4QO+KM5aJ6rDnjoiI6FJhCN+KF1HG1MYD0q3hIsZERERdhQ7Mwg4yhi1HXt+Tbh177ohyfFiV2yTVP7j0AdEti8e3yrEXbidizx0REVF32haB2o5dCqIcTqggIiIiWhDeliUiIiJaEAZ3RERERAvC4I6IiIhoQRjcERERES0IgzsiIiKiBWFwR0RERLQgDO6IiIiIFoTB3aJkd1ew4Fc+NzLfKt3hwXTCZeTX2UzabzblpGng+UI0NAZ3S2W8hQ4A0PHWGLks1N5c2q91OUP4jgUzG2ibFhz/XKA9TLrQMZtvOWc6CAt5hb4F08y/h9monMlbxOUtvEf51nbt87vs+LJv5MMyG7yuaC7nNdHMMbhblJlcMNd7KKXShycWll9nM2m/ruUMfVimjs3OzW2yjoOL3UaHWbU579DpOgqdD9A3Lg6HXG44JPmd6SkOHQumHpe38B7XyK+T0IdjmVjpG7jnixiby3lNtBwM7hZPw5t38T/TX800H3Npv3PlDOF8iAMCI9pcPQq2JTw7+uY/uJuSHqph02nbIPdDoOyR/DgwHt4jvz38OxjCg5SZ10sJT8T57T6gKt4KHRN6HIRGm8/LXJ77dVmq9vl1P764R1HfYOceYAgP9kU/kuZyXhPNlKJF8QQUAAXhnT5n2EqOWLYqSfkMe5jSDZ1fG3Npv9bl9ET0NwjlFf9Wl3bodOdIWxk171uRSNlGlJ8oS5S+p6H6OSXP5FebtOL4MmUUXlTINnU4l/OaaCnYc3cD9OSeyLs3hZ6GouoxPHVDhqI02fE6JkzLbz4Op5FkALZZ3vsROvG4qoq/dxT6DhzLzI/ZWpkwLaeyTpJxTWZckNB3juOTGtRnUfP2A+BbaT30fNfxrLpy+i8uAMCwP6KsE2r90YYBAIdnfAvHS3eO/2UX3eIV96Xv20Xynob9FduzDXxdlcenvceDELBlgP26n0K2Oq+JqJ2xo0uaCk+J+Nd+6aPi17UnjOo0DXs3mvWkeUrU9W606P1o3HOX9v5UPcrzkraRvn/y7651086xx6auzYbXpCcpad/sa4ZOd+4wuvaw1Z27yd/6PB/OfFaqtDw+9rwRTRd77ghACMdMBkgbEJ6EVMcxStKzId6VpHJMbKJBTbC9zBgh6SEa9uNi02Ym3QQZwoadq4/4+AAAB+y+VHePHXY69N0BMMRxzJeMe4zg4vPklmK5vu8/q465ftD90OnKHHu1PjXvYQt9WOYGLip65sKf+A70N+7sXH41Oh0fEU0SgztC6HzALg7sktsux2u7Bm29xX6/Ldw68fFld0jTbLO3arQ19kEcALW87TUp6z2C/RbbXH0gOr5k1Ln7Ur9Gl2FDBnuk1aNt8TUZ0P9D9lxgDdtPIg4eDYhPxTYby3Hw/OH5W4tgf+h0NUIHn10AMGB/rLshm12/bRXPKo1+/ARlEZP8EQVU794AvgOrMCTi/HIvLfO7+PiIaA4Y3N28EN+eozUNWv3S91/gAjW/8te4j6I79B7DTIH+Fmc7fgwbMqgJsL7/7L9Xc71HoBSUCipmWI7jOMZthw+F8Zhh6MOxkh8Y46arclmv1gG7zQdYJT214c/v0T/cDfTNDm5xCZROy5pU51eFvXZEy8Lg7uZJ/Ih77R7eN7+qZ7+UqhZB3URj2mtujc1AvK6XWTw+fYezsUHFQPF0OYq6wG9psj2W7gZ6pi71eHmNSaQrk/ZqAeL+XMS8xl4VliaxDQAHuLv6IO10CZQmy6h0z6/b8RHRHDC4I6riW1jFgUCLUIAqaNsgGr+Z6/I0YBgCtuchisUMvNXHTVeU9moZNlrfsdQ0rLcBVHwb/7D7Un4bX3gI9lustWy4r2G9/xqX84DnJuMbmuaXcdHxEdEkMbijywjv7KKorcb+TIYPK+l6zE6IUMWJEdSGtt5iH2TrMkAQ7LFdI+5Bfoc3JafL0OlS2V6tS8Ywru/jSTjfke3I1pLBgZW36DW8f+gwRrMivxN9HR8RTQqDu5uXzBps2DMQO/+lNHPJmEIYsL9mJkTQdaRjOFuuH3fldOG35356tZJZscVgMhm7efiBqtBN/ujQb1yVX/FlfR0fEU0Kg7ubl5lZ2OAWTir9UtqhZjWQKyiboOHDajIGrjch/C/P07xVO+Iixp2FDsyNi9YzNa+eLpkRfnmv1jGIKix5or1B9PFz8VLaXj5eOoyHq8yv8N59Hd+1JQuDz+q8JhrTEIvp0cSli5dCwRDK9rJLkkolPVsJcbpQabqIKQwlbC//dymVZwtllKQrarqo8DE/oZIiSi9T9j4XMc7UiZE5NunZhcWeTxefTRcubr3306WmuohxGamk9JSdWQS7WXUNl+64AHX3BYallLmFvsvyPOZj5D97MrOweMO2bJLfab7djm+4RYyPC05f2h5Et4LBHUU8UQiSmuxQUQgmGqVrkCYNqgo51uwYYdh2xar8XfOrT2cIUbmzAIO7MnX1edyvdPx0iWNA0WwP4mIA0ldZ8z9m+smvy/Fd8Lm9WDHvvvbgJVou3palyHqPQEZLLxjF2YXChve17LaNhm0gIT0BwyhMLzAMCNuDLE3XvYwnsx/jyQ7B9n3rHQfqRcfmCSM3cSKaaSkR7O/7zKwnU13EuIyR1qVUbfYrHSZd6HyOx1wKfLpgQpCRfA5q84zPNVvkP3tp2uZjPpvl19/xDUPDNlkUnYgaWSml1NiFICIiqhbCMfV44WkBT+3bTaAhujHsuSMioukKQ/iZHUUM+yMDO6Izfhm7AERERCdCB2ZhFrxht9wzl+hGseeOiIgmLB73K+e6IDrR8DjmjoiIiGhB2HNHREREtCAM7oiIiIgWhMEdERER0YIwuCMiIiJaEAZ3RERERAvC4I6IiIhoQRjcERERES0IgzsiIiKiBWFwtyg+rNUKq9UKq5UFv/K5FkIHZte01+RbcblMWEMUrE1+vhXXd/5hOuF18uvsCufLQELfgmke63aQc4CIaCYY3C2V8RY6AEDHW2PksvQuhPPZjfecPMD97KBF2MT8yszofPGtFfSNi8Ph/GuJiG4Rg7tFmf4Xcz80bD8JRIdqQHza4ro7TrbMb72HUip9eOLK+XU2w/MldPDZjf5p2B5kXMf79bjFIiKakl/GLgBdm4Y37wAckOmdWYD1HoHaM7/eTft8Cb89Rz2awkOwZURHRFSGPXeLEn8xA8C7N1fuzaL5m+/5YrydWthJRDQdDO5ugJ7cezvzBR76DizTzE8C+BD3lFSngu/kB7evViZMy0d4MlAsGawfDdT3LTN9fTTXIDw+Z1o4mX9w8USFMB6IXzhG04Jf9hZ9TIxo46L82rRDvabnS1LmQSe2EBHReYpISeUJKKDuIZR3ks5TwqhLYyhbFl4fv5dtG/nXGrbySp7LJxel+Rj5TCqcKWsxr4vzy75Nw3Sd82vbDn2RyjbO1GHfOcbnSNs2ICK6Jey5I4TOB2xcADAgPJmZDCAhvWRg/0kqOOYG7iFKZ2fSSWlDGABwwE4vW07DxW53gGFLKGlH73/YYZM8l8xAOPyAzCbrPFEhX1bhyXQgfnSMNsS7kmQXT4xoqVN+l7QDEREtEYO7Wxc6+LA7ADBgywD7dfZGnAZNf1uezv+CXRJQyADbTDpN22L/NQ7a4OKlNKoQ+LTVAO0N0rjKsPF1qwH624qAspvQ+ZAr636tZW43atDWW+z3155xeyUXt8Mlhp61DMgfXP+EiOgcBnc3Lp19aDzgfYtvZv8lXo9CfMK2LJ22xae458ktiSoM+yOKcx2vExyE+PZ8iPP8Wl7WGbu0HS623iNQCkoFV1+OJPSTZVAMPLQ5WYmIbgyDuxuX9oS0mi0Z4uf36F/ivvobPR2Y//3nySK8794UczNwnQmQEj/inq3lBQSXt8P0HXfM0Dc7HAwDthcsLkgnIuoTgzsCcJ2lJbQ3ZQPZaGiLaocD8GOGISoR0ZAY3NHVhEm3Eo1q3u2wxj6ZIOIJAAe4mw+ny+QQEVGKwd2NS27ZHX7I0r+nY/Jyjovf1o3j6nbLt2/JFlsHPH9bWkQwp3a4nLbexzOIl9iWRET9YXB347RjdHC6VIZvQd+Vz05c36ej9MuX2MjsAVo3Huz6jgHQYfdlccuBjN4OAy9irM9uM1wiouExuLt163tE4YGLjeXHo5lC+I6J1cYFDKN8WZJsOtOCk9kGIfQdmPou3QN07E3d1x+Py4FsTAtObjuKMNqZw3LmOZJr1HYI4Xx2457dA9zPM61DIqKlGXzZZJocWdwZIrcrxXFXiZMdKqStjLpdLU52LEjeC0p4xecyuyik75vNs7AbQs2jdPcCT7Qsa9f8hk7XpR36wh0qiIimiD13BG0bRDtRZLroDOFBqv3JWnSFhAikhCcKvXtGvAtEMKGFgdf7Y1nzhYUhbHhfJ1TWtkZrh+EXMSYiovNWSik1diGIiJoIHRN6vE1dwMXuiIhKseeOiGbn8PyN4/uIiCowuCOi2dDeP0S3gQ87fHB8BnhERCV4W5aIZsW3Vti4+eeEp0aflU1ENBXsuSOiWVnv5ckEICIiOmLPHREREdGCsOeOiIiIaEEY3BEREREtCIM7IiIiogVhcEdERES0IAzuiIiIiBaEwR0RERHRgjC4IyIiIloQBndEk+HDWq2wWq2wWlnwK59rIXRgNknrW/HrTFitM1maK7TDVcylnDPhW3G95R+ms5BN7pZ+fLMxzOeWwR3RFBlvoQMAdLy9+k4MIZzPLg4AgAPczw73bE0M2g4X6FjO0DGPX/TmMto9d0yVj7ED3+yXeeFhmrAcH+ESGuNSoQ/LPH9+NmvzBud5GMJ3LJhm/v2KP3h7y++K1xcGd0STMVYAoWH7SSDK2oD4tIU2RjEmY+KBXOrScob49nw4/vfwjG+3HFCs91BKpQ9PjFSOwwHubgNd77kXfSrH10Tow7FMrPQN3MP5l/eSpWPB1HVsdi4Oh2tmOsz1hcEd0aRpePMu/mf6K+8K1nsESkGpAPv1tTKZs4Ha4WItyhl+w/MBgGHHX/QHPC8puhNeLpjJP/aYxmluwJbZcsX7JgMADnA3Y/cwDi3uOdM32LkHGMKD3SAI1bZBTVvng1nj4f3Jj9fQMaHvorsXhrDhSZlLW7wmXppfyRH0fn1hcEc0GZkP+Ls3N957Nqa5tMNl5Qy/PUdfZg/vsb6PvokOz98WcWt2vjRo6z0CaccBnovPtzQmLvyGzzsXBxgQnkSwX+NNL+/r4LMLAAKfttrJ3z7sDkgC7WC/xVq78FNfl99A1xcGd0QTpyd9+GcuBKHvwCqMFTE/PKPyBkPHAdbJeJPkdVG+mfSmBb/mLULfgmlm8zRhWn6DoCKM0xaO8Ux+3dPlNW0HAKNOUGlWzuSWrIGH9xqwvkfUeVdyazadlHM69ignPZ9urbfpCrT3eIib8fBDlrwgGRtW8jm6Siw4UH7aezwIAVsG2K/7C3v8L7voOijuT3psk78Z9lecxGFXyK9Kq+tLE4qIZk4qT0ABdQ+hvGIyT5S+1rBlfW62kb4u+Xej/JRSnqh6fXWaOKUSRs3xGbYqL3XXdJeQyjaunceFpK2MQtmSc6is/dPzS9S0UIPXDCE9Jy8sR119XM5TAlCAoarePq3Pk/PnzDld855l73/++PrJr6vqemgoOddLy5m0Q921p8/8hsOeO6KZC50P2LgA4lsZqnT8TokLB1gfdjr03QEwBLxk3FDN7aTQMbFx49sf2XJKD8KI0mxKZ5aFcMxkYHV0jDJ3jDbEu5NEF6RbvuSWbLaXIOk5KLs1m9y2hftS0Svn48WN/iXupzGabd5C/Pwe/zPXk5M/p7OfIynt+HN0wE7vq/d06Pz6d+xF+3TaMxf+xHeg13G0tfkNaYyIkoh6cu5XYvr3879Mm/6Sz/XWlfyaLu85OddTUf33Y37tfgl3TdcLT6TtMnJHVoljz2KubI16OFB+PEkv8AR6Kat7kzOPBo0yas9d2haF+k5721umKytBk+PrMb+uLuq5O3d9TI5PeEp6thJG4dwxhLK9VhedSfTaKcWeO6JZS3tgjAe8H/pXomFDBjXLpnz/eewB8l8QjS+u+jW7xn08YzM/xOi4XEe7MTFd0/VkyrOPk1myEMh1sqXjvMpmza7x0Y77ZF9O+2j8uNuu2cxAqhaPD9Xj3h/DM/dyvQAAIABJREFUxsdMG/lp92jF50jb4lPayXp5X9rQ+fXtXC9amHSPuhvomx3c4hIoBxe7jd54oefJ9NqBEyqIZk3+iC9GY8zqrMgzXSYgE/hlL6JVi31u4u+R7z+zF1KJH/EtoYdW0WvXdMuX/iA4Geyt4f1D9a1Z7f1DdMvd/Yz8d11yS3ZidV23FMpkIu4Ddnr2c6BD37hpYJf/8XS8VVt36zsdmJ/9cdXJ0Pn1LJ2x2myowOkSKBKeiD8Puw84G9+1zO/aGNwRLYDxdrorr9GUHHs0y76A0gDu8AMnczSrevaSXtkxeo8XyDBENLatrle8hvZm2IGkQ+fXVNqLVuj9LCW8kiVQNKz3X2FX9mZfkN8AGNwR0XBqF5aNHsHY9zOWLL0lC7ibkh7U5HYgXJzeZYt2MgHyPXvJrTvubNJFcRFjhSDYY3vBMiBpL/lAhs6vkWwvWs15mQamlb2Omd7s0iVp2uU3JAZ3RDOWznCsuPCkt+BGdv4iWiXZqqft7gld0y1bm/OhdAzVyXp4yS3Zwvg9uoLj4rd149v6G6oxdH79OY5FPtOLpr+t7qmOpcfXR34DYnBHNGPa8ep7uhSBb0VLlUxBehHd4UurcdfHL5jD7kuL5Ra6puvJiIsYV8tOMpHVvade3bInx4kvz9/CzESZZou1hs4U62U+zi5J0/O4r6Hz64ePL/F172wvmvYG0WWirKc6eq/zS/y0yK8nyULytZ+joablEtE1HJeogPDipQKk8pLlIAzjekuhtFz74LjQsqGE7eWXNZBSebZQhihZ7iCz3MLp0gQyWsKgz3QXm+gixo2XaWi47ImwlS1aLPuQbY++F47NZbOMRYzr08XntDwmll6mfntb6qW//LpquxTKcSmcZudXbsmk7DVCZhZvrsm7bX6Xy7RJTb4M7ohmrn6XiKoV2AsBSM2jePHv/uXZIM+qi2i6btxA6S4yzeAubbez5cmUv7SNOx7f0MFd7aO/z0M3XYM7VVKPTc7pC46vU35dXdoOx8CneTudy1Oo6qXuuuR3qWJ5y88h3pYlmjltG0Q7UWS2ojCEB6n2jfc1HIaGbRDvmpEtLAAYBoTtQX6tuK2x3iOQ0dIE+aRGtIRB3+kuEk08MOJ8pjLAuvnYqOMg8vLbcZm/o8XadtoWX+1MvXhTOz9nQtsez+ns80a8C0vHWbaTye8CofMZ8fQefGo8MSu6Lnl2/hqaXpPUHlXzW7rldykN28DDuQ2FVkopNUh5iIiIiOhCIRxTxy5ejNwr+SHPnjsiIiKiOQhD+NYHJHPlDPtjaQ/4L4MWioiIiIjaCZ3jtnQxw5aV64Ky546IiIhoFuLxwrJ+wXeOuSMiIiJaEPbcERERES0IgzsiIiKiBWFwR0RERLQgDO6IiIiIFoTBHREREdGCMLgjIiIiWhAGd0REREQLwuCOiIiIaEEY3BFNhg9rtcJqtcJqZcGvfK6F0IHZJK1vxa8zYbXOZAYmfXxXaPermEs56Sx+HhaPwR3RFBlvoQMAdLw1rp1ZCOezG+9ZeID72UF4zdx8B5ZpwnSumUsux07HN3w5MXC7X6BhOX0r+UI2UVqN6Y+PFVbmdc+7pkZp90EN+3m/yFw+DxPE4I5oMsa6gGnYfhKIsjYgPm1RvWPh5eTLDu7hcP6Fvel2fMOVcy5fXJeU84Dnb6chRPjtGUOeCU0Mf34ObdjPe3tz+TxMG4M7oknT8OZd/M/0V+wVrPcIlIJSAfbra2Uyotkd30DtfrG6cob4+R0ADBgGcHj+VughCvHteclB1ITx87B4DO6IJiNzAXv3ZmK/pul65tLuXcv5Dg8PBnB4Rq7zLvyG5wMgPA8CAA4/IHssLc3VXD4P08bgjmji9OQexZkLXTJWaJUOPF7B/FBz28u3cq9N0zQca1San2nBDwvps+OqVits3Ojpw04vzb84wDt0zFy5onyLefZwfBeWM34T+I4F08y+1oRp+ShWyzlN2z051rEGyDcp55v3DzAKt2b9LzscIHBf23PUtj6TgffxoPvQz5+jpgmreLL00u5A6FeUs+rIOp7Xg30eTnOOj7HsM1+dZpTPAwGKiGZOKk9AAXUPobxiMk+Uvtaw5dkc6/Mr5CVtZdSWLf8QhYJK20jLlfz7Ksd3YTmV8pQw6tIYqkHVdiCVnc3XsNVVsmktKZdQXvLvtGyeEoCC8I7/PmnDLvV5fC/bE5XtmWu7i9tdKU9UnZcV56bqfl4P9nlo0xal59xYnwdSSikGd0Qzd7zAG0p42aulVDL9giv/gslKArazF/v0S8JQ9kl+thJGfV6N80netfgFZgiVZpv5Yj73fm3zbff6bICVrxcp7cyX3Pl2aG+qwV0+aIvaMf5Cj8+hKFAqC+661mfyXiVppXd8z5o66n5+Fj4PMhPclOTX9bwe/vOQbwvhycyxxJ95UTy+MT8PpBSDO6J5Sy/mFb+C07/3F9ylXy5lXRgNXBTc1X1JninPVYO7bMBb2w7lPT8XS4N44zrv30kcaCVtFteBYcc9zcVevGzdda7PbHBXkjZ93+rPQ7vzpKTsDf/e9bwe+vOQC16b/moY+/NAimPuiGYsXUrCeMD7gQaiaMloZ/cznOrBNv0zbMigZtmG7z9HW6/Lf4kHaolP2JYVUNvik4j+6b5cYVDcHGY/au8Rzav4gM8uYDy8j9vydOmLPupTeMFpWv1tvATId/zs42TxX+DWlRNr3EezRfCjarZI1/N6kM/DcUazYX+tOMZTo38eiBMqiOZM/oinSww5yHj9EbYBAAfsNno0SN1pP0C6tYpj1LYBlFJQdV90V5Us+QGImtkB6YDwEYPQQYU/8T33hIb3DwZwOOAAAw+Vv0b6qE8DbwdYLyNMCupuSicrZCdofK+KJrue14N8HiSiS0xdexXx8zAFDO6IFsAY4psspWEbSHjCiHpBDge4uw10fYWVaZXvREDHHs8bpr1/iM6ZHnqaWZ/zxva7LgZ3RNSBhvU+QKAUpGfDFvGv8IOLnV69XMQtS3t5bpm2jW4fl/Yq1dy6LDGp+hRe1FtW8wia3tO8EZNqvwVicEc0Y8mtjUPFt+IQ2ztp6y22+wBKyfh2Laa9X2Xvjouu1o0fGuUW+pjkj47n3nzqM+19WuytxWQ8ZPn2ceXm035LxuCOaMaOkxtecHIZ9S3ou+H3cD0nDUhPtqOaljblXN+no8NP2wEAQgefkzHm9av2djPiIsZndfjyHrM+W52fyQSNww5fplbvvTgGaofdl/K2KDH25yFZ6HmSn4eBMLgjmrP1fbR1E1xs0tXwQ/iOidXGBYx4XFyPfMuE5TglO1H4sJIrds0Xunb8tsAHp3oF/7G1Kme2HUwLTqZuQt+Bqe+iXizhXWE2awjnsxv3kh1m2Gt6DCDSSQcj1merds/O+tzEE4uyfw/jHRqsubXJ0fqjHV9D4rbIzZAPox0yisc36ufBx5f0R+0B7sZqHJQuykhLsBBRT+pXqa9a/b+w8G3No7gO1tndMM4sYnwu76odKtqtq9f9+LqW8+xOB1dbXHiiixgna501aLfSNdc61eeZdefOrQsZvahduzc51y5Yj+70EEb4PNTs9lHZFlP5PNzoThjsuSOaOW0bQHoCRqaLzhAepNrjGkuerfcSni1gGIU+QcOAsD3I4Fy+8WxbO1/m6WlZTm2LQGZmEScMA8KT9WuSXVrOTyLO04D4NNaSMHkXD5gfsz5bnZ/R66PPYMVn4us02qSz9f7YFvnGgCFseGXHN2r7eTg/QGTZVkopNXYhiIiIiPoRwjF1RHdnBbwr/dCdMvbcERER0TKEIXzrA5Jhd4b98eYCOwD4ZewCEBEREV0kzEzUiBm2vNn1BdlzR0RERAsRjwOUt71wNMfcERERES0Ie+6IiIiIFoTBHREREdGCMLgjIiIiWhAGd0REREQLwuCOiIiIaEEY3BEREREtCIM7IiIiogVhcEdERES0IAzuiCbDh7VaYbVaYbWy4Fc+d8N8C+ZqhdXKhDXlyhiknHM5X0Ys56TPl7m0H80RgzuiKTLeQgcA6HhrjFyWyQjhfHbjvSMPcD87CEcuUbkRyjmX86VNOUMnDsy6BjlzOV8wn/aj2WBwRzQZvLDX07D9JBBVkQHxaYtp7hw5VDnncr6MVc6pny9zaT+ao1/GLgAR1dHw5h2AAzK/7m/Yeo9A7ccuxXmjlXMu58tA5ZzL+ZKaS/vR1LHnjmgy4gs7ALx7M7FeBpqeuZwvcynn0FgvdD0M7ogmTk/u3ZR+ASQDsONxSaEPyzTjAdkrrEwTll8+0ih0oteZTvT30Hdgmas0rWlaqEgKIITvWDAzr1+tTJiWj7CYJh07taof1O5b5QPJ0+fzj6TcFW/WuV6yxxj6Fsxsurp66VTOOCffgWOZaT0d69OpaYNy9efLaZnHmnDQqpxttG6H/LniW2Za/1GS8PicaaHsbUZrP6IqiohmzFMCUIBQtieUASiUPIR3mlLahgKgDFum/z59CHWa1FPCKM8nehjKloUUIv5bWUHOvcYTpfkYxUx6qpdGx2jY6iT3TuWsTldXn/2QyjbOHNOYpB23W9k5WKN1O2TOleLnwLCVV/KcbJDf9duPqBp77ogWwcVu4+IAA8KTUEpBKQlPxH/dVM84POx06LsDYAh4UkVppR0PRHfxOddVEcIxN3APAGDATvNSkNKGMADggJ2ez299nxTkpaIcPl7c6F/ifp3/03qf5qGUSo+pmWO9pGWVHuy4c6R8BmX+GIUnIdP8JaRnQ7w7SXRROQ1hw87lE5UzeosDdl+4KEZjndvBxW53gGHL4/l/2GGTPJe80eEHZCEl248mZ+Bgkoh6lfQ6VPUQHP9e7KXK9daV9Nqkf88mTHspKnoj0t6WYn7V5ci9b4Peo6SHr1nPXUVZ0+M47RU61stlPS7Nynn2TWp6UHuQ9moaNb2YI+nac1dwvh2y50qSV+a55JzsUp5rtx9RBfbcES2E8AJsTwbprJF0mn3/WTH4x7Ahg5plIr7/THu3/LR77VNJXgC0LT6lnXS5vjt8jLvL8s/n39d4eN/7OKPSetHfxj2T35GvlhDfnqOV0Qz7a/kxDikt55Ws9wiUglIB9uvzL186w/6IYjVctITKtduPqAKDO6JFMPD2zLoJhx/Fm0mxioHb2jaIbi+lgV+In9+jv53cOs1IB4RngkIA0N4/RF907ufCoPTklqyBh/d9R1Pn6yVP4sfhWmWpEfolA/JXWOm7eBFeGsK7N8U2b3j+sP1oYhjcES2cPvBKqdqbsgFpALT3eIjH5D1/y0R3/gui2O4BQ8ZTk+FbWOkb7NwDA4E5YvvRBDG4I1o4+SO+zdiuC6uzMOneOxHtGAAAh+dvJ7d6p7eDwBB8WJv4Vnd2QosqTmyhaWL70TQxuCNatOOt1NNbTm0dF10tGzeXSILJ0tu96/toBuHhGVHnXXJLVqDmTu+Aki2hCr2L15L0WsKA/XWP9e1Ft/PG9qOJYnBHtGT+F+ziMWR9dNydXdIkdPC5akmT6B3iCR5x8JR8OYr7k4Hs4zgGsIfdl44b1vclhP/l+bq3+kZcxHj5rt9+yULkbD8qYnBHtBA/voW5CQyhb8GMbxn1NvMz6XmDi41pwclsRxH6DsxkALnwKmdfJgHi4cc3OC8uAAP2x2mEdgCw/nhc429jWnD8/Dp/oe/AssrWx+sgnU15wPM3P33PaLcQHRv3qqEBnM9uHHwcKtb8o1qjtp+PL7vk/Q+1a1nSDRpxGRYiulh2ja6Kh/BK144rXceuicxadqWPs2vVtdkZofDamkd+HbOkXs6tx1fx95pdLcrL3LWc9ekMIdLdE/pfJ20uO1T0V5/l6crWYCw5f0rXuZtQ+3EnDMpgzx3RQhmGiHZl2K/7naigbRFICU8Y+cHiRrybQ92aedEb4P3DMeU11ra72Hp/PMb8QcIQNryvfU3+0LANTusyabtgf99LLpV5fxJxvsaNTmi51MjtFyS7YBDlrZRSauxCEFFXPqzVBi4M2LJsEWMiWq4QjqnH42oFPLWfyNhVGht77oiIiOYmDOFbH5AMuyvbXYNu1y9jF4CIiIgaCjMTl2KGLRGw254y2HNHREQ0O/H4T6kY2NEJ9twRERHNhbZFoLZjl4ImjhMqiIiIiBaEt2WJiIiIFoTBHREREdGCMLgjIiIiWhAGd0REREQLwuCOiIiIaEEY3BEREREtCIM7IiIiogVhcEc0GT6s1Qqr1QqrlQW/8rkWQgdm17REvbjCeX0VI5bTt+LPqQlrGpWRMZf2oywGd0RTZLyFDgDQ8f/t3b2Sm1gaxvGHqrkUaV12jS8AfAXSTOBowgkhtDqYbB31Zg7AocjWoSMHXriCQRfgLbu8cC9nA0BfDfpGwOn/r0pV/UXz6iA1Tx/OObx0e65l5Io0UuB58qKi71IGpZd2Gcvr+pw6r/4HqlD0GFf3il0pfow02FfqWI4fCHfAcPAHswv5lwfFq9XxH3xm7tcuY3ld91XnRIv3vspdu/LfLzSsO8WO5fhhG+EOGLSJXryuPlz/1wyM3Vhe13eqc7ZUZoyMybScdbWTWxrL8Xu+CHfAYGz9wXz9YmD/vQOXGsvreix13hvtMkaEO2DgpvU1kSN/WOsxVM56oLMj78/POnbhrUgDeZ6ztZ0nL0hbxv3UA6mr8UVFurtPz1OQto8YKtJIUeBVY5S29xepbbMiKn+/V40NK5/n1nP0gt1t12Ogysc8Lr+8epjutE39aBrAfl6du22SBt7658uSi83XvEBtQ9w6Pw43aBepUBq11HnmQLFTX9fl0+1vwsFZdZ4jDRrb3WsdA3n96+yS91+bztoFt2EAjFxuEl9GOvTwTdKwZeK7Z26TGL/6Xpj4xm3Z1m/e2ZEaXRPmDc8uLGt0w3z98cFa87C1rpNqPbvOrTbZr88NTdLwtf2neZfjcG27mMT47vnH73q5Cd3D7derdbs2v8datbzO3NZGvPJ1duH7D+NEuANGbhN4XOMn23+dc5OvT/xPTzzb24Xb2+VbJ/EnJ9L6BKOGfW6HzIYTXeIb1w9NmOS7vzPf+p0NqfBJoHN9s9nlJrC0nRTrmtpPmtfWudsmbpg/CVJumG+dXHfb5lbHYb1tnmzC0IEgdF67bAes3TrzPNwKfWcGnJNYGu72HD8e173OLn3/YZwId8CYrf+4t/zX3Xriqf+gt/233vb97RNM07ab7591nmg7IZm9cNdwYl9/v2WHZ4e7s+vcbpP661tfq2tuPBYdHYcD7bn5kTPaZf37jr3Ozjzup1r/k+J28/uv0Uu4O/d1dnTnHYZz9IExd8CIFV+rMXXuH/r9nIEv6RfFkuS/16Jxu5ne+pK00o+8+Vf4Sdawbb2d9O3nGYN4pi91dLUFN1SeHVgm4tvP7tcHO1KnG/6l/cmOB5e26Oo4rOv8pnMOQ3uZ1QC9tjonC72vjnv8pYNBcaObTdqts19nx5zy/sOoEO6AEct/VNMlzhzUXPz8Vn4QzxsHdW8PuG8Oaa5eHln/YNWURoq0YUC3I2f6cHTiR9tznCwyGWNkDgW/c11Y5+sX+xUcbqd7HIfrFarL9N+2J6v1APt7hOxn7tzX2do17z+Myi99FwDgem73Z/iTlSf5hlNFGsipk8qQjaXOgZm8eK3G445h4HX9rNBzBzxnflL2eh14ZM3XC1vVvYm7gTNVUJ9YXF9JvrefPBzIZaGe6uzgONzbuhcSAzSW9x9uhXAHjFh9KazxEqi2xuTtmdSrkt78EtrmEt7OpaN6bJlchZ+Wmg01p9y5zu6Owy1tFrE9NJ7u0iECuIOxvP9wM4Q7YMQmm7Pu05uWp4GmDy2XyeoB1KsHfbjl+Pf0g8pdnjMWrFD64fhiy5daB+DPX68MUB3U2dVxOGnXp7fL7O16tsTT15kkFZEe6zkXB8blXazHRYzt1+37T9osRM7xux/CHTBms7cqT7ux5uu7GRRKI68cX+O6zZdbtmc3zj0F0d6dEIrqTgRB1Hri//G12PlekQbyqks/bvhpd1blejbeSp+/bvZV3m1iqnnc3allHYBXD/pz/3nuu3edNzgOF+/6nHbZfp15gaKt21EUaSSvHpDvJx3MZi0UPcZV+Fgpfrx9W1ivx/eflOrD+p/MleJ50PwPAm7rXmuuAOjG4bs2bFa1b1geeHdx2KbH0cVzGx5+0rDI7OF9ub7fWuexdexOaKGD+979tZfU2bS2X8P6dK3rj11zHI6tO3forgPntIt5smDu8RpvZSyLGB9+7K5fd8Ixf7LdNa+zy99/N2igvX1zJ4x7oOcOGLnJIlOe+HK3uuhcP1Fulk/WwtrbUossr7bd699zXflhovzT6cuLuK6vMMlllrOGbcp9Jf5uT2K9TbZ8e+JeLlHtO9xto4M/e9c6b3sczt3vae0iabJQlj9tG7mu/CQ/vAbhtXW+96t9utet5/Zs9f3+S6qeX9yLY4wxfRcBYCxSBc5csVyFedMixgCwr1DkTavxuL6So/944lr03AEAgG4UhdLgT9XD7pruroHbYxFjAABwW8XWRJuKG+aDX6/RFvTcAQCAjrhy/VBJPvyFuG1Czx0AALityUKZWfRdxbPFhAoAAACLcFkWAADAIoQ7AAAAixDuAAAALEK4AwAAsAjhDgAAwCKEOwAAAIsQ7gAAACxCuAMGI1XgOHIcR44TKG392oCkgTzHkeN4CjorbiztMpY6b6lQ5NXPz1OQFg0/8xzbBegX4Q4YIvelppKkqV66PdfSqlD0GFf3jlwpfozUdGq/qVG0i86oczvk7D08T0GUqui8US9VKPKm5Q3hXV9Jnmk5O3J7qbEcP2DkCHfAYIzthDfR4r2vsmRX/vuFurlz5Fja5cZ1rlaKH+aaTrvsFb3UJti5YaI8W6o9143l+AH2INwBgzbRi9fVh+tejwGZLZUZI2MyLWf33PHA22Xt1DpdhbmRMfUjV57UwXmleD60S5cTLbKy1mwxuyDUj+X4AeNEuAMGY+uE9/pFR71gYzSWdrllnRNNZktleVgFvFiP0WCvzx4xluMH2INwBwzctL6m1XhirMdsVT07RarA83bHbTUOci8VaaQo8KpJEZuB8V4QqXWzNGgcI+adGD6KNNqt0XHkeYHSMweXHW6XpzV3P/Gj2Vl17pv8rj+qzVc/8sYfKdJAnrd//NLW8Y9F5O0cr/J47B+L/a3q15mnxsNcROv2PTWDXtUuAA4zAEYsMb5kJN+EiW9cyajh4SdNm/qNP7t5uCbMT9/Obfzh/U0P7c83TWVeLzehu7UfNzTHK72X+vi1tLXZarOGuhPfPbs989BdH6/64+PbHqkzD6vXXvvzAHA/9NwBVoj1MI+1kis/ydfjthK/+m7LmC3XDxUmuXKzNd4rT1RuttLDh4atZsutsWFmvY+j0kDzWJJchesa6/FloXwG3Tco9PNb9eFeD1cReZrHKz1pzzyp2jLW3Gufwbx6mGr6sKpmutbb2nAZGADhDrCGq3BnOYqJZss6qMX6sp/TZktly4UWs8nuZbHJTMt1Kvxys4H8RZ1S/Pda7EytnGgyW2iZLdXNnIx7zertQPFVn8u1ZuS/3W6dVB8eqmCXZ7vtOZlpmVXHffVZXw9lNDfcnek6WehTWE3jaLkMDGD4CHeAJfwk0+JJapnpbZXTvv08oydm+lK37kib1KPq40dFB8YBdqK3Wb2XKsqxdNOHch1BN9RfO9nui2KpDMqNSbU+7iu1ZjQ3VJ4dCLrffna/biGAThDuACu4enlkPYnGnpgibZhQ4cipQ8Utzf5S2Sm00sN8OoJFeu9ppYfp9jGYajqP18FuP4Ste0HjefMCyI5TXQI/EOpbJjJMFll5ifZQ8AMwaIQ7wHLTthVk00DOdK6HeHX7INdookWWK/HdsldwvUivI8cLTp5l+Vy4rl+OpSNkATgT4Q6wXP6jjG7uTtdeqqDu2tkeUG/2B9bf2kSzZabMGOVJqLCeRbGK9TB1BngnhnvZX8TYKMuWe2MTG/jJ7nFreGTN120BWIxwB1htM9vy9Yutk3w9Zkuuwk+Hbh3VnclsocUykzF5dblW97k/rQXW4xcZFwegAeEOsFn6obyx+wlj8jYKpR8+3+lSrVTPZu1Uj4sYd6Ke8LJ6UNNqNd1pmqCRKuhijCaAixHuAEv8+Frs9OIUaSCvuvTqhp92Z1WuZ8Ou9Pnr5m4G5d0KptX6abeVBp6CKHp6J4oiVfBYXSLu5G4FhaLHanKCVnb0Dk4Wer9ew7CamLL9/aJQGgXygls9182s63i+uYNFkUbynHnVCwxgMO61WjKALtR3Djjw8JOGOzLs3bVh/24Tvr++80VyxnY7v2PvVgWH704hI5c7VJznhGPR8FzXd6VovG3JoVLb72jihuEVzwPArdFzB1hqPdtyOWvoDdububq3TbZ8e/N6ZstcSejLdfemariu/DApF9O9+V6lUS9ifFB5DPPkQJt+uuFznS2f3kmkmoyTLX5X26RsAPfnGGNM30UAuFSqwJkrru9UYEdqAQBcgZ47AAAAixDuAAAALEK4AwAAsAjhDgAAwCJMqAAAALAIPXcAAAAWIdwBAABYhHAHAABgEcIdAACARQh3AAAAFiHcAQAAWIRwBwAAYBHCnU3SQI7jlA/PU5AWfVcEAADujHBnq9VK8XwqJ0j7rgQAANwR4c4ms6WMMTImVxK65dfiR0V04AEA8GwQ7qw00WyRKfElaaXPX0l3AAA8F4Q7i01fun2XAAAA7oxwBwAAYBHCHQAAgEUIdwAAABYh3D0Dqx953yUAAIA7IdxZbPL7H3IlKZ6zoDEAAM8E4c5mk4WyxJcrlQsaO44cx2PdOwAALEa4s930pV6zIgoAAM/GL30XgA4Vkbzpg1ZyFSaftJhN+q4IAAB0jJ47m+U/tJIk/z3BDgCAZ4JwZ7Hi5zdJkvty2nMlAAD8qCYiAAADpUlEQVTgXgh3AAAAFiHcAQAAWIRwBwAAYBHCHQAAgEUIdxbLf6z6LgEAANwZ4c5KhYoo0DwuP3v9gmVQAAB4LljE2CZpIKdOdDU/0XLWTzkAAOD+6LmzlevKDxPlJDsAAJ4Vxxhj+i4CAAAAt0HPHQAAgEUIdwAAABYh3AEAAFiEcAcAAGARwh0AAIBFCHcAAAAWIdwBAABYpN9wlwZyHKd8vHmjIC16LQcAAGDshtNzl2WK51M5Qdp3JQAAAKPVb7ibLWWMkTG5ksgrvxb/Sx/pwAMAALjIQHruJpq9+1uJL0mZPv+HdAcAAHCJgYS70vSV13cJAAAAozaocAcAAIDrEO4AAAAsQrgDAACwyCDDXfY977sEAACAURpUuJv89oc8SYrnLGgMAABwgUGFO03e6e/ElyeVCxo7jhznDeveAQAAnGhY4U6Spq/0KyuiAAAAXOSXvgvYUXzUm+lCmTxFyb/1bjbpuyIAAIBRGVbPXf5dmST5/yTYAQAAXGBQ4a74338lSd6rac+VAAAAjNOgwh0AAACuQ7gDAACwCOEOAADAIoQ7AAAAiwwq3OXfs75LAAAAGLWBhLtCxcdA87j87Nd/sAwKAADAJfpdxDgN5NSJruYnWs76KQcAAGDsBtJzJ8nz5EeJcpIdAADAxRxjjOm7CAAAANzGcHruAAAAcDXCHQAAgEUIdwAAABYh3AEAAFiEcAcAAGARwh0AAIBFCHcAAAAW2Q13aSDHccrHmzcK0qKnsgAAAHCJ9p67LFM8n8oJ0juWAwAAgGvshrvZUsYYGZMribzya/G/9JEOPAAAgFFo6bmbaPbubyW+JGX6/B/SHQAAwBgcnFAxfeXdqw4AAADcALNlAQAALEK4AwAAsAjhDgAAwCInhbvse951HQAAALiBg+Fu8tsf8iQpnrOgMQAAwAgc7rmbvNPfiS9PKhc0dhw5zhvWvQMAABio45dlp6/0KyuiAAAAjMIvB79bfNSb6UKZPEXJv/VuNrlTWQAAALjE4Z67/LsySfL/SbADAAAYgYPhrvjffyVJ3qvpXYoBAADAdVjnDgAAwCKEOwAAAIsQ7gAAACxCuAMAALDIwXCXf8/uVQcAAABuoCXcFSo+BprH5We//oNlUAAAAMZgdxHjNJBTJ7qan2g5u2NFAAAAuFj7ZVnPkx8lykl2AAAAo+EYY0zfRQAAAOA2mC0LAABgEcIdAACARQh3AAAAFiHcAQAAWIRwBwAAYJH/A4X8StdSvIpsAAAAAElFTkSuQmCC;" parent="1" vertex="1">
          <mxGeometry x="13" y="96.19999999999999" width="401" height="336.18" as="geometry" />
        </mxCell>
        <mxCell id="IGUT0qL6y9MyzmAOrScW-16" value="Si falla el &lt;br&gt;Lambda,&amp;nbsp;se envÃ­a&lt;br&gt;a cola&amp;nbsp;DLQ" style="text;html=1;strokeColor=none;fillColor=none;align=center;verticalAlign=middle;whiteSpace=wrap;rounded=0;" parent="1" vertex="1">
          <mxGeometry x="630" y="312" width="140" height="33.8" as="geometry" />
        </mxCell>
      </root>
    </mxGraphModel>
  </diagram>
</mxfile>
